<mxfile host="app.diagrams.net" modified="2023-10-25T21:07:42.850Z" agent="Mozilla/5.0 (Windows NT 10.0; Win64; x64) AppleWebKit/537.36 (KHTML, like Gecko) Chrome/118.0.0.0 Safari/537.36" version="22.0.8" etag="-aTA2xbx8B9vobK7g3T5" type="github">
  <diagram name="Page-1" id="XNWsJdPrJBjQ7eOfmgim">
    <mxGraphModel>
      <root>
        <mxCell id="0" />
        <mxCell id="1" parent="0" />
      </root>
    </mxGraphModel>
  </diagram>
</mxfile>
